#!OML:ASF F:\VICON\USERDATA\INSTALL\Justin_Nancy\Justin_Nancy.ASF
:FULLY-SPECIFIED
:DEGREES
51
root -10.6512 16.4347 -11.7556 3.29333 18.5908 -3.92145
lowerback 9.17475 -0.0216694 -5.07775
upperback 0.123596 -0.473679 1.7594
thorax -4.97085 -0.0892532 4.77436
lowerneck -23.1388 -3.11723 -7.30857
upperneck 15.4333 -3.13711 6.15462
head 8.83052 -1.23264 2.86185
rclavicle 2.49475e-014 -1.39149e-014
rhumerus -50.2731 7.3724 -88.5433
rradius 107.515
rwrist -2.56017
rhand -12.6512 24.0814
rfingers 7.12502
rthumb 13.4294 -5.46568
lclavicle 2.49475e-014 -1.39149e-014
lhumerus -35.0863 -6.63423 83.4216
lradius 106.794
lwrist 24.3644
lhand -18.5615 10.7207
lfingers 7.12502
lthumb 7.72843 40.5594
rfemur -20.8621 -7.09664 8.86945
rtibia 94.2803
rfoot 11.338 -4.13942
rtoes 16.9842
lfemur -14.2117 6.65798 -36.8785
ltibia 37.3441
lfoot -21.6059 3.83195
ltoes 17.8841
52
root -10.564 16.432 -11.4748 3.84685 19.2553 -3.63664
lowerback 8.9844 -0.313865 -5.12341
upperback 0.255627 -0.857242 1.73
thorax -4.67846 -0.290473 4.81288
lowerneck -24.1772 -2.97789 -7.29675
upperneck 15.4584 -2.81499 5.87471
head 8.98581 -1.09686 2.8087
rclavicle 4.82053e-015 -2.06736e-014
rhumerus -50.5362 7.0678 -88.4178
rradius 108.282
rwrist -3.60822
rhand -12.6431 23.8697
rfingers 7.12502
rthumb 13.4372 -5.67687
lclavicle 4.82053e-015 -2.06736e-014
lhumerus -33.7192 -6.48137 83.5889
lradius 107.203
lwrist 24.7668
lhand -18.713 10.3643
lfingers 7.12502
lthumb 7.58219 40.2084
rfemur -23.5601 -6.85033 8.71538
rtibia 94.7407
rfoot 11.0266 -3.66998
rtoes 12.8194
lfemur -13.4489 6.22647 -36.9221
ltibia 37.3452
lfoot -21.6491 3.02322
ltoes 16.778
53
root -10.4704 16.4584 -11.1808 4.13174 19.9344 -3.46496
lowerback 9.02944 -0.592656 -5.25045
upperback 0.262876 -1.2383 1.83672
thorax -4.64522 -0.476367 5.04642
lowerneck -24.5372 -2.70959 -7.16306
upperneck 15.4078 -2.363 5.39523
head 8.9873 -0.926956 2.68504
rclavicle 1.47598e-014 1.55052e-014
rhumerus -51.2516 6.89537 -88.174
rradius 109.2
rwrist -4.67482
rhand -12.4748 23.881
rfingers 7.12502
rthumb 13.5994 -5.65481
lclavicle 1.47598e-014 1.55052e-014
lhumerus -32.8741 -6.21119 84.0535
lradius 107.651
lwrist 25.1073
lhand -18.7312 10.61
lfingers 7.12502
lthumb 7.56463 40.4547
rfemur -25.9662 -6.69514 8.83513
rtibia 94.6707
rfoot 10.342 -3.05429
rtoes 6.88118
lfemur -12.3977 5.84679 -36.7975
ltibia 37.2681
lfoot -21.1244 2.48093
ltoes 16.2194
54
root -10.3658 16.5019 -10.8901 4.51761 20.5924 -3.09855
lowerback 9.08835 -0.811829 -5.51442
upperback 0.15099 -1.56069 1.88134
thorax -4.74776 -0.623401 5.28796
lowerneck -24.2875 -2.40472 -6.89438
upperneck 15.059 -1.92289 4.80657
head 8.78473 -0.772484 2.49589
rclavicle 8.89561e-015 1.19271e-015
rhumerus -51.8956 6.778 -87.8771
rradius 109.769
rwrist -5.71567
rhand -12.3814 23.8522
rfingers 7.12502
rthumb 13.6894 -5.67753
lclavicle 8.89561e-015 1.19271e-015
lhumerus -32.3547 -6.20137 84.5563
lradius 108.033
lwrist 25.473
lhand -18.0308 10.4729
lfingers 7.12502
lthumb 8.24065 40.2921
rfemur -28.1528 -6.43299 8.78093
rtibia 94.0428
rfoot 8.06744 -3.866
rtoes 10.2373
lfemur -11.3026 5.27216 -36.9235
ltibia 37.1233
lfoot -20.1185 2.23596
ltoes 16.092
55
root -10.2582 16.5476 -10.6015 4.97237 21.2076 -2.85217
lowerback 9.04932 -1.01868 -5.69486
upperback 0.0192615 -1.84841 2.02954
thorax -4.81666 -0.754334 5.58519
lowerneck -24.042 -2.21773 -6.88895
upperneck 14.648 -1.58258 4.34571
head 8.57631 -0.663461 2.37904
rclavicle 2.63887e-014 -1.94809e-014
rhumerus -52.4112 6.89459 -87.5576
rradius 110.22
rwrist -6.78009
rhand -12.4722 23.9675
rfingers 7.12502
rthumb 13.602 -5.56811
lclavicle 2.63887e-014 -1.94809e-014
lhumerus -31.9302 -6.17279 85.1647
lradius 108.391
lwrist 25.845
lhand -18.2617 10.1096
lfingers 7.12502
lthumb 8.01772 39.9375
rfemur -30.2084 -6.03495 8.8763
rtibia 92.9592
rfoot 7.14665 -4.19045
rtoes 9.32021
lfemur -10.3434 4.60337 -36.9733
ltibia 36.9218
lfoot -18.9926 1.9135
ltoes 14.7631
